<svg xmlns="http://www.w3.org/2000/svg" width="1190" height="722" viewBox="0 0 1190 722"><rect width="100%" height="100%" fill="#DDDDDD"/><path fill="#999999" d="M289.065 398.66h18.2v12.95h-56v-12.95h20.51v-59.01q0-3.5.21-7.21l-14.56 12.18q-1.26.98-2.49 1.22-1.22.25-2.31.04-1.08-.21-1.92-.74-.84-.52-1.26-1.15l-5.46-7.49 30.87-26.25h14.21v88.41Zm81.2 0h18.2v12.95h-56v-12.95h20.51v-59.01q0-3.5.21-7.21l-14.56 12.18q-1.26.98-2.49 1.22-1.22.25-2.31.04-1.08-.21-1.92-.74-.84-.52-1.26-1.15l-5.46-7.49 30.87-26.25h14.21v88.41Zm50.05-57.89q0 8.47 4.37 12.91 4.38 4.45 12.43 4.45 4.2 0 7.49-1.33t5.53-3.64q2.24-2.31 3.39-5.46 1.16-3.15 1.16-6.79 0-4.13-1.26-7.39-1.26-3.25-3.57-5.49-2.31-2.24-5.5-3.43-3.18-1.19-6.96-1.19-3.92 0-7.07 1.29-3.15 1.3-5.39 3.61-2.24 2.31-3.43 5.49-1.19 3.19-1.19 6.97Zm-8.47 70.84 31.43-39.27q1.19-1.47 2.24-2.87 1.05-1.4 2.03-2.8-3.5 2.24-7.7 3.39-4.2 1.16-8.82 1.16-5.25 0-10.29-1.82-5.04-1.82-8.96-5.5-3.92-3.67-6.34-9.1-2.41-5.42-2.41-12.7 0-6.79 2.52-12.74t7.07-10.43q4.55-4.48 10.92-7.07t14.07-2.59q7.77 0 13.96 2.45 6.2 2.45 10.57 6.86 4.38 4.41 6.72 10.57 2.35 6.16 2.35 13.51 0 4.69-.81 8.89-.8 4.2-2.27 8.08-1.47 3.89-3.57 7.6-2.1 3.71-4.69 7.35l-23.17 33.04q-1.19 1.68-3.57 2.83-2.38 1.16-5.39 1.16h-15.89ZM556.115 361q0 13.23-2.84 22.99-2.83 9.77-7.84 16.14-5 6.37-11.83 9.48-6.82 3.12-14.73 3.12t-14.67-3.12q-6.75-3.11-11.72-9.48-4.97-6.37-7.77-16.14-2.8-9.76-2.8-22.99 0-13.3 2.8-23.03t7.77-16.1q4.97-6.37 11.72-9.49 6.76-3.11 14.67-3.11t14.73 3.11q6.83 3.12 11.83 9.49 5.01 6.37 7.84 16.1 2.84 9.73 2.84 23.03Zm-17.85 0q0-10.99-1.61-18.2-1.61-7.21-4.31-11.48-2.69-4.27-6.19-5.99-3.5-1.71-7.28-1.71-3.71 0-7.18 1.71-3.46 1.72-6.12 5.99-2.66 4.27-4.24 11.48-1.57 7.21-1.57 18.2 0 10.99 1.57 18.2 1.58 7.21 4.24 11.48 2.66 4.27 6.12 5.98 3.47 1.72 7.18 1.72 3.78 0 7.28-1.72 3.5-1.71 6.19-5.98 2.7-4.27 4.31-11.48 1.61-7.21 1.61-18.2Zm129.01 27.44-9.17 9.03-23.73-23.73-23.94 23.87-9.17-9.03 23.94-24.01-22.82-22.82 9.1-9.1 22.82 22.82 22.68-22.68 9.24 9.1-22.75 22.75 23.8 23.8Zm48.09-78.05h69.93v7.49q0 3.36-.7 5.42-.7 2.07-1.4 3.47l-38.36 78.96q-1.19 2.45-3.36 4.16-2.17 1.72-5.81 1.72h-12.53l39.13-77.35q1.33-2.38 2.62-4.38 1.3-1.99 2.91-3.81h-48.44q-1.61 0-2.8-1.19-1.19-1.19-1.19-2.8v-11.69Zm117.39 85.12h25.97q2.8 0 4.44 1.57 1.65 1.58 1.65 4.17v10.36h-69.44v-5.74q0-1.75.73-3.68.74-1.92 2.35-3.46l30.73-30.8q3.85-3.92 6.89-7.49 3.05-3.57 5.08-7.07 2.03-3.5 3.11-7.11 1.09-3.6 1.09-7.59 0-3.64-1.05-6.41-1.05-2.76-2.98-4.65-1.92-1.89-4.62-2.84-2.69-.94-6.05-.94-3.08 0-5.71.87-2.62.88-4.65 2.45-2.03 1.58-3.43 3.68-1.4 2.1-2.1 4.62-1.19 3.22-3.08 4.27-1.89 1.05-5.46.49l-9.1-1.61q1.05-7.28 4.06-12.78 3.01-5.49 7.52-9.17 4.52-3.67 10.36-5.53 5.85-1.85 12.57-1.85 7 0 12.81 2.06 5.81 2.07 9.94 5.85t6.44 9.1q2.31 5.32 2.31 11.83 0 5.6-1.65 10.36-1.64 4.76-4.41 9.1-2.76 4.34-6.47 8.4-3.71 4.06-7.77 8.26l-22.82 23.31q3.29-.98 6.54-1.51 3.26-.52 6.2-.52Zm81.2 0h25.97q2.8 0 4.44 1.57 1.65 1.58 1.65 4.17v10.36h-69.44v-5.74q0-1.75.73-3.68.74-1.92 2.35-3.46l30.73-30.8q3.85-3.92 6.89-7.49 3.05-3.57 5.08-7.07 2.03-3.5 3.11-7.11 1.09-3.6 1.09-7.59 0-3.64-1.05-6.41-1.05-2.76-2.98-4.65-1.92-1.89-4.62-2.84-2.69-.94-6.05-.94-3.08 0-5.71.87-2.62.88-4.65 2.45-2.03 1.58-3.43 3.68-1.4 2.1-2.1 4.62-1.19 3.22-3.08 4.27-1.89 1.05-5.46.49l-9.1-1.61q1.05-7.28 4.06-12.78 3.01-5.49 7.52-9.17 4.52-3.67 10.36-5.53 5.85-1.85 12.57-1.85 7 0 12.81 2.06 5.81 2.07 9.94 5.85t6.44 9.1q2.31 5.32 2.31 11.83 0 5.6-1.65 10.36-1.64 4.76-4.41 9.1-2.76 4.34-6.47 8.4-3.71 4.06-7.77 8.26l-22.82 23.31q3.29-.98 6.54-1.51 3.26-.52 6.2-.52Z"/></svg>