<svg xmlns="http://www.w3.org/2000/svg" width="469" height="290" viewBox="0 0 469 290"><rect width="100%" height="100%" fill="#DDDDDD"/><path fill="#999999" d="M102.66 150.52h13.64v-14.67q0-2.07.27-4.59l-13.91 19.26Zm20.3 0h5.64v4.43q0 .62-.4 1.07-.4.45-1.15.45h-4.09v10.94h-6.66v-10.94H97.39q-.78 0-1.37-.48-.59-.48-.74-1.2l-.81-3.87 21.24-28.37h7.25v27.97Zm36.7-27.94-13.29 16.28-1.55 1.92q1.3-.65 2.8-1.01 1.5-.35 3.24-.35 2.54 0 4.95.83 2.4.84 4.23 2.53 1.83 1.69 2.94 4.2 1.12 2.51 1.12 5.86 0 3.13-1.15 5.87-1.15 2.75-3.22 4.79-2.08 2.05-5.01 3.23-2.93 1.18-6.46 1.18-3.6 0-6.45-1.15t-4.87-3.21q-2.01-2.06-3.08-4.96-1.07-2.9-1.07-6.43 0-3.16 1.28-6.5 1.29-3.33 3.99-6.93l10.69-14.35q.56-.74 1.63-1.27 1.07-.53 2.46-.53h6.82Zm-11.56 39.06q1.83 0 3.37-.62 1.53-.62 2.63-1.73 1.1-1.12 1.72-2.62.62-1.5.62-3.27 0-1.92-.59-3.46-.59-1.53-1.67-2.6-1.09-1.07-2.61-1.63-1.52-.56-3.34-.56-1.83 0-3.32.62-1.49.62-2.54 1.72-1.06 1.1-1.65 2.61-.59 1.5-.59 3.24 0 1.86.52 3.39.51 1.54 1.52 2.62 1 1.09 2.49 1.69 1.49.6 3.44.6Zm28.27-25.6q0 3.75 1.94 5.72 1.94 1.97 5.5 1.97 1.86 0 3.32-.59 1.46-.59 2.45-1.62.99-1.02 1.5-2.41.52-1.4.52-3.01 0-1.83-.56-3.27t-1.58-2.43q-1.03-1-2.44-1.52-1.41-.53-3.08-.53-1.74 0-3.13.57-1.4.58-2.39 1.6-.99 1.02-1.52 2.43-.53 1.41-.53 3.09Zm-3.75 31.37 13.92-17.39q.53-.65.99-1.27.47-.62.9-1.24-1.55.99-3.41 1.5t-3.9.51q-2.33 0-4.56-.8-2.23-.81-3.97-2.44-1.73-1.62-2.8-4.03-1.07-2.4-1.07-5.62 0-3.01 1.11-5.64 1.12-2.64 3.13-4.62 2.02-1.99 4.84-3.13 2.82-1.15 6.23-1.15 3.44 0 6.19 1.08 2.74 1.09 4.68 3.04 1.93 1.95 2.97 4.68 1.04 2.73 1.04 5.98 0 2.08-.36 3.94-.35 1.86-1 3.58t-1.58 3.37q-.93 1.64-2.08 3.25l-10.26 14.63q-.53.75-1.58 1.26-1.06.51-2.39.51h-7.04Zm77.16-10.26-4.06 4-10.51-10.51-10.6 10.57-4.06-4 10.6-10.63-10.1-10.11 4.03-4.03 10.1 10.11 10.05-10.05 4.09 4.03-10.08 10.08 10.54 10.54Zm37.33 3.13h11.5q1.24 0 1.97.7.72.69.72 1.84v4.59h-30.75v-2.54q0-.78.33-1.63.32-.85 1.04-1.53l13.61-13.64q1.7-1.74 3.05-3.32 1.35-1.58 2.25-3.13.9-1.55 1.38-3.15.48-1.6.48-3.36 0-1.61-.47-2.84-.46-1.22-1.32-2.06-.85-.84-2.04-1.26-1.2-.41-2.68-.41-1.37 0-2.53.38-1.16.39-2.06 1.09-.9.7-1.52 1.63-.62.93-.93 2.04-.53 1.43-1.36 1.89-.84.47-2.42.22l-4.03-.71q.46-3.23 1.8-5.66 1.33-2.43 3.33-4.06 2-1.63 4.59-2.45 2.58-.82 5.56-.82 3.1 0 5.67.91 2.58.92 4.41 2.59 1.82 1.67 2.85 4.03 1.02 2.36 1.02 5.24 0 2.48-.73 4.59t-1.95 4.03q-1.23 1.92-2.87 3.72-1.64 1.8-3.44 3.66l-10.11 10.32q1.46-.44 2.9-.67 1.44-.23 2.75-.23Zm27.28-24.24q0 3.75 1.93 5.72 1.94 1.97 5.51 1.97 1.86 0 3.31-.59 1.46-.59 2.45-1.62.99-1.02 1.51-2.41.51-1.4.51-3.01 0-1.83-.56-3.27t-1.58-2.43q-1.02-1-2.44-1.52-1.41-.53-3.08-.53-1.74 0-3.13.57-1.4.58-2.39 1.6-.99 1.02-1.52 2.43-.52 1.41-.52 3.09Zm-3.76 31.37 13.92-17.39q.53-.65 1-1.27.46-.62.9-1.24-1.55.99-3.41 1.5t-3.91.51q-2.33 0-4.56-.8-2.23-.81-3.97-2.44-1.73-1.62-2.8-4.03-1.07-2.4-1.07-5.62 0-3.01 1.11-5.64 1.12-2.64 3.14-4.62 2.01-1.99 4.83-3.13 2.82-1.15 6.23-1.15 3.44 0 6.19 1.08 2.74 1.09 4.68 3.04 1.94 1.95 2.97 4.68 1.04 2.73 1.04 5.98 0 2.08-.35 3.94-.36 1.86-1.01 3.58t-1.58 3.37q-.93 1.64-2.08 3.25l-10.26 14.63q-.53.75-1.58 1.26t-2.39.51h-7.04Zm63.9-22.41q0 5.86-1.26 10.18-1.25 4.32-3.47 7.15-2.22 2.82-5.24 4.2-3.02 1.38-6.53 1.38-3.5 0-6.49-1.38t-5.19-4.2q-2.2-2.83-3.44-7.15-1.24-4.32-1.24-10.18 0-5.89 1.24-10.2t3.44-7.13q2.2-2.82 5.19-4.2 2.99-1.38 6.49-1.38 3.51 0 6.53 1.38 3.02 1.38 5.24 4.2 2.22 2.82 3.47 7.13 1.26 4.31 1.26 10.2Zm-7.91 0q0-4.87-.71-8.06-.71-3.2-1.91-5.09-1.19-1.89-2.74-2.65-1.55-.76-3.23-.76-1.64 0-3.17.76-1.54.76-2.72 2.65-1.17 1.89-1.87 5.09-.7 3.19-.7 8.06 0 4.86.7 8.06.7 3.19 1.87 5.08 1.18 1.89 2.72 2.65 1.53.76 3.17.76 1.68 0 3.23-.76t2.74-2.65q1.2-1.89 1.91-5.08.71-3.2.71-8.06Z"/></svg>