<svg xmlns="http://www.w3.org/2000/svg" width="550" height="261" viewBox="0 0 550 261"><rect width="100%" height="100%" fill="#DDDDDD"/><path fill="#999999" d="m126.44 112.29-1.86 10.98q1.75-.36 3.36-.53 1.6-.16 3.1-.16 4.16 0 7.34 1.24 3.17 1.24 5.33 3.43 2.15 2.19 3.24 5.13 1.1 2.94 1.1 6.33 0 4.2-1.48 7.67-1.48 3.47-4.1 5.93-2.63 2.46-6.23 3.81-3.59 1.35-7.83 1.35-2.48 0-4.71-.51-2.22-.51-4.18-1.37-1.95-.85-3.61-1.97-1.66-1.11-2.97-2.35l2.77-3.83q.88-1.24 2.3-1.24.91 0 1.86.58.95.58 2.17 1.28 1.23.69 2.89 1.27 1.66.59 3.99.59 2.49 0 4.38-.8 1.9-.81 3.16-2.25 1.26-1.44 1.9-3.43.64-1.99.64-4.33 0-4.3-2.5-6.73-2.5-2.43-7.39-2.43-3.76 0-7.71 1.39l-5.62-1.61 4.38-25.62h26.06v3.83q0 1.94-1.2 3.14-1.2 1.21-4.09 1.21h-14.49Zm42.34 0-1.86 10.98q1.75-.36 3.36-.53 1.6-.16 3.1-.16 4.16 0 7.34 1.24 3.17 1.24 5.33 3.43 2.15 2.19 3.24 5.13 1.1 2.94 1.1 6.33 0 4.2-1.48 7.67-1.48 3.47-4.1 5.93-2.63 2.46-6.23 3.81-3.59 1.35-7.83 1.35-2.48 0-4.71-.51-2.22-.51-4.18-1.37-1.95-.85-3.61-1.97-1.66-1.11-2.97-2.35l2.77-3.83q.88-1.24 2.3-1.24.91 0 1.86.58.95.58 2.17 1.28 1.23.69 2.89 1.27 1.66.59 3.99.59 2.49 0 4.38-.8 1.9-.81 3.16-2.25 1.26-1.44 1.9-3.43.64-1.99.64-4.33 0-4.3-2.5-6.73-2.5-2.43-7.39-2.43-3.76 0-7.71 1.39l-5.62-1.61 4.38-25.62h26.06v3.83q0 1.94-1.2 3.14-1.2 1.21-4.09 1.21h-14.49Zm66.18 18.21q0 6.9-1.48 11.99t-4.09 8.41q-2.61 3.33-6.17 4.95t-7.68 1.62q-4.13 0-7.65-1.62-3.52-1.62-6.11-4.95-2.59-3.32-4.05-8.41t-1.46-11.99q0-6.93 1.46-12.01 1.46-5.07 4.05-8.39 2.59-3.32 6.11-4.95 3.52-1.62 7.65-1.62 4.12 0 7.68 1.62 3.56 1.63 6.17 4.95 2.61 3.32 4.09 8.39 1.48 5.08 1.48 12.01Zm-9.31 0q0-5.73-.84-9.49t-2.25-5.99q-1.4-2.22-3.23-3.12-1.82-.89-3.79-.89-1.94 0-3.74.89-1.81.9-3.2 3.12-1.38 2.23-2.21 5.99-.82 3.76-.82 9.49t.82 9.49q.83 3.76 2.21 5.99 1.39 2.22 3.2 3.12 1.8.89 3.74.89 1.97 0 3.79-.89 1.83-.9 3.23-3.12 1.41-2.23 2.25-5.99.84-3.76.84-9.49Zm67.27 14.31-4.78 4.71-12.38-12.38-12.48 12.45-4.78-4.71 12.48-12.52-11.9-11.9 4.75-4.74 11.9 11.9 11.82-11.83 4.82 4.75-11.86 11.86 12.41 12.41Zm43.94 3.69h13.55q1.46 0 2.31.82.86.82.86 2.17v5.4h-36.21v-2.99q0-.92.39-1.92.38-1 1.22-1.81L335 134.11q2.01-2.04 3.6-3.9 1.59-1.86 2.64-3.69 1.06-1.82 1.63-3.7.56-1.88.56-3.96 0-1.9-.54-3.34-.55-1.44-1.55-2.43-1.01-.99-2.41-1.48-1.41-.49-3.16-.49-1.61 0-2.98.46-1.36.45-2.42 1.27-1.06.82-1.79 1.92-.73 1.09-1.1 2.41-.62 1.68-1.6 2.22-.99.55-2.85.26l-4.74-.84q.54-3.8 2.11-6.66 1.57-2.87 3.93-4.78 2.35-1.92 5.4-2.89 3.05-.96 6.55-.96 3.65 0 6.68 1.07 3.03 1.08 5.18 3.05 2.16 1.97 3.36 4.75 1.21 2.77 1.21 6.17 0 2.91-.86 5.4-.86 2.48-2.3 4.74-1.44 2.27-3.38 4.38-1.93 2.12-4.05 4.31l-11.9 12.15q1.72-.51 3.41-.78 1.7-.27 3.23-.27Zm54.79-44.39-15.66 19.16-1.82 2.27q1.53-.77 3.3-1.19 1.77-.42 3.81-.42 3 0 5.83.99 2.83.98 4.98 2.97 2.15 1.99 3.47 4.95 1.31 2.95 1.31 6.9 0 3.68-1.35 6.91t-3.8 5.64q-2.44 2.41-5.89 3.8-3.45 1.38-7.61 1.38-4.24 0-7.59-1.35-3.36-1.35-5.73-3.77-2.38-2.43-3.64-5.84-1.25-3.42-1.25-7.58 0-3.72 1.51-7.64 1.51-3.93 4.69-8.16l12.59-16.9q.66-.88 1.92-1.5 1.26-.62 2.9-.62h8.03Zm-13.61 45.99q2.15 0 3.96-.73 1.8-.73 3.1-2.04 1.29-1.32 2.02-3.09.73-1.77.73-3.85 0-2.26-.69-4.07-.69-1.8-1.97-3.06t-3.07-1.92q-1.78-.66-3.94-.66-2.15 0-3.9.73-1.76.73-3 2.03-1.24 1.29-1.93 3.06-.69 1.78-.69 3.82 0 2.19.6 4 .6 1.8 1.79 3.08 1.18 1.28 2.93 1.99 1.76.71 4.06.71Zm49.53.04h9.49v6.75h-29.2v-6.75h10.69v-30.77q0-1.83.11-3.76l-7.59 6.35q-.66.51-1.3.64t-1.2.02q-.57-.11-1.01-.39-.43-.27-.65-.6l-2.85-3.9 16.1-13.69h7.41v46.1Z"/></svg>