<svg xmlns="http://www.w3.org/2000/svg" width="202" height="16" viewBox="0 0 202 16"><rect width="100%" height="100%" fill="#DDDDDD"/><path fill="#999999" d="M87.56 9.975h1.48q.16 0 .25.09.1.09.1.24v.59h-3.97v-.33q0-.1.04-.21.04-.11.14-.2l1.75-1.76q.22-.22.4-.42.17-.21.29-.41.11-.2.17-.4.07-.21.07-.44 0-.21-.06-.36-.06-.16-.17-.27-.11-.11-.27-.16-.15-.06-.34-.06-.18 0-.33.05-.15.05-.27.14-.11.09-.19.21t-.12.27q-.07.18-.18.24-.11.06-.31.03l-.52-.09q.06-.42.23-.73.17-.32.43-.53.26-.21.59-.31.34-.11.72-.11.4 0 .73.12.34.12.57.33.24.22.37.52.13.31.13.68 0 .32-.09.59-.1.27-.25.52-.16.25-.37.48l-.45.47-1.3 1.34q.19-.06.37-.09.19-.03.36-.03Zm6.64-1.97q0 .75-.17 1.31-.16.56-.44.92-.29.37-.68.55-.39.17-.84.17-.45 0-.84-.17-.39-.18-.67-.55-.28-.36-.44-.92-.16-.56-.16-1.31 0-.76.16-1.32.16-.55.44-.92.28-.36.67-.54.39-.18.84-.18.45 0 .84.18.39.18.68.54.28.37.44.92.17.56.17 1.32Zm-1.02 0q0-.63-.1-1.04-.09-.41-.24-.66-.16-.24-.36-.34-.2-.1-.41-.1-.21 0-.41.1-.2.1-.35.34-.15.25-.24.66-.09.41-.09 1.04 0 .63.09 1.04.09.41.24.65.15.25.35.35.2.09.41.09.21 0 .41-.09.2-.1.36-.35.15-.24.24-.65.1-.41.1-1.04Zm3.66 1.97h1.48q.16 0 .25.09.1.09.1.24v.59H94.7v-.33q0-.1.04-.21.04-.11.14-.2l1.75-1.76q.22-.22.4-.42.17-.21.29-.41.11-.2.17-.4.07-.21.07-.44 0-.21-.06-.36-.06-.16-.17-.27-.11-.11-.27-.16-.15-.06-.34-.06-.18 0-.33.05-.15.05-.27.14-.11.09-.19.21t-.12.27q-.07.18-.18.24-.11.06-.31.03l-.52-.09q.06-.42.23-.73.17-.32.43-.53.26-.21.59-.31.34-.11.72-.11.4 0 .73.12.34.12.57.33.24.22.37.52.13.31.13.68 0 .32-.09.59-.1.27-.25.52-.16.25-.37.48l-.45.47-1.3 1.34q.19-.06.37-.09.19-.03.36-.03Zm8.35-.4-.53.51-1.35-1.35-1.37 1.36-.52-.52 1.36-1.37-1.3-1.3.52-.52 1.3 1.3 1.3-1.29.53.52-1.3 1.3 1.36 1.36Zm5.47.58h1.04v.74h-3.2v-.74h1.18v-3.37q0-.2.01-.41l-.83.69q-.08.06-.15.07-.07.02-.13 0-.06-.01-.11-.04t-.07-.06l-.31-.43 1.76-1.5h.81v5.05Zm5.35-5.04-1.72 2.1-.2.24q.17-.08.36-.13.2-.04.42-.04.33 0 .64.11.31.1.55.32.23.22.38.54.14.33.14.76 0 .4-.15.76-.15.35-.41.62-.27.26-.65.41-.38.15-.83.15-.47 0-.84-.14-.36-.15-.62-.42-.26-.26-.4-.64-.14-.37-.14-.83 0-.41.17-.84.16-.43.51-.89l1.38-1.85q.07-.1.21-.17.14-.06.32-.06h.88Zm-1.49 5.04q.23 0 .43-.08.2-.08.34-.23.14-.14.22-.34.08-.19.08-.42 0-.25-.07-.44-.08-.2-.22-.34t-.34-.21q-.19-.07-.43-.07-.23 0-.43.08-.19.08-.32.22-.14.14-.22.34-.07.19-.07.41 0 .24.06.44.07.2.2.34t.32.22q.19.08.45.08Z"/></svg>